<svg width="48" height="48" viewBox="0 0 48 48" fill="none" xmlns="http://www.w3.org/2000/svg">
<path d="M23.975 34.7C26.3917 34.7 28.4167 33.8833 30.05 32.25C31.6833 30.6167 32.5 28.5917 32.5 26.175C32.5 23.7583 31.6833 21.7417 30.05 20.125C28.4167 18.5083 26.3917 17.7 23.975 17.7C21.5583 17.7 19.5417 18.5083 17.925 20.125C16.3083 21.7417 15.5 23.7583 15.5 26.175C15.5 28.5917 16.3083 30.6167 17.925 32.25C19.5417 33.8833 21.5583 34.7 23.975 34.7ZM23.975 31.7C22.3917 31.7 21.0833 31.175 20.05 30.125C19.0167 29.075 18.5 27.7583 18.5 26.175C18.5 24.5917 19.0167 23.2833 20.05 22.25C21.0833 21.2167 22.3917 20.7 23.975 20.7C25.5583 20.7 26.875 21.2167 27.925 22.25C28.975 23.2833 29.5 24.5917 29.5 26.175C29.5 27.7583 28.975 29.075 27.925 30.125C26.875 31.175 25.5583 31.7 23.975 31.7ZM7 42C6.2 42 5.5 41.7 4.9 41.1C4.3 40.5 4 39.8 4 39V13.35C4 12.5833 4.3 11.8917 4.9 11.275C5.5 10.6583 6.2 10.35 7 10.35H14.35L18 6H30L33.65 10.35H41C41.7667 10.35 42.4583 10.6583 43.075 11.275C43.6917 11.8917 44 12.5833 44 13.35V39C44 39.8 43.6917 40.5 43.075 41.1C42.4583 41.7 41.7667 42 41 42H7ZM41 39V13.35H32.25L28.6 9H19.4L15.75 13.35H7V39H41Z" fill="black"/>
</svg>
