<svg width="163" height="24" viewBox="0 0 163 24" fill="none" xmlns="http://www.w3.org/2000/svg">
<path fill-rule="evenodd" clip-rule="evenodd" d="M2.08696 2.08696H160.696V21.913H2.08696V2.08696ZM0 0H2.08696H160.696H162.783V2.08696V21.913V24H160.696H2.08696H0V21.913V2.08696V0ZM107.896 5.06713L108.752 3.33913H110.48V4.19562L108.752 5.92362H107.896V5.06713ZM67.5889 17.2766V8.66545H71.5539V6.67826H62.3022V8.66545H66.2672V17.2766H67.5889ZM14.9888 6.69332H5.73709V12.6549H13.6671V15.3044H5.73709V17.2916H14.9888V11.3301H7.05876V8.6805H14.9888V6.69332ZM18.6235 17.2916V11.9925H22.994V17.2916H24.4508V6.69332H22.994V10.0053H18.6235V6.69332H17.1817V17.2916H18.6235ZM27.5883 17.2916H26.2816L28.2641 6.69332H33.5358L35.5333 17.2916H34.2116L32.2291 9.34289H29.5708L27.5883 17.2916ZM37.5397 6.69332V17.2916H38.8614V11.3301L43.4872 15.3044V17.2916H44.8089V6.69332H43.4872V12.6549L38.8614 8.6805V6.69332H37.5397ZM47.109 17.2916V6.69332H54.3632V8.6805H48.4157V11.3301L54.3331 11.315L54.3632 13.3173H48.4157V15.3044H54.3632V17.2916H47.109ZM73.5574 17.2916H72.2507L74.2332 6.69332H79.5049L81.5024 17.2916H80.1807L78.1982 9.34289H75.5399L73.5574 17.2916ZM87.5928 17.2766V8.66545H91.5578V6.67826H82.3062V8.66545H86.2712V17.2766H87.5928ZM93.5705 17.3217L95.553 11.3602L93.5705 6.72342H94.8922L96.8747 10.0354L98.8572 6.72342H100.179L98.1963 11.3602L100.179 17.3217H98.8572L96.9197 12.685L94.9522 17.2314L93.5705 17.3217ZM102.117 17.2916H103.424L105.406 9.34289H108.065L110.047 17.2916H111.369L109.371 6.69332H104.1L102.117 17.2916ZM119.014 6.69332H120.997V8.6805L124.286 6.69332H126.268V7.35571L120.997 10.6677V13.3173L126.268 16.6292V17.2916H124.286L120.997 15.3044V17.2916H119.014V6.69332ZM128.479 17.2916H129.785L131.768 9.34289H134.426L136.409 17.2916H137.73L135.733 6.69332H130.461L128.479 17.2916ZM139.135 12.685V6.72342H140.457V10.6978H145.083V6.72342H146.404V12.685H143.386V17.3217H142.064V12.685H139.135ZM147.998 17.2916H149.305L151.288 9.34289H153.946L155.928 17.2916H157.25L155.253 6.69332H149.981L147.998 17.2916Z" fill="white"/>
</svg>
