<svg width="133" height="128" viewBox="0 0 133 128" fill="none" xmlns="http://www.w3.org/2000/svg">
<path fill-rule="evenodd" clip-rule="evenodd" d="M4.83019 4.83019H128V123.17H4.83019V4.83019ZM0 0H4.83019H128H132.83V4.83019V123.17V128H128H4.83019H0V123.17V4.83019V0ZM10.3378 16.5733H31.7606V21.164H13.3982V27.2848H31.7606V41.0566H10.3378V36.466H28.7002V30.3452H10.3378V16.5733ZM40.177 28.815V41.0566H36.8384V16.5733H40.177V24.2244H50.2973V16.5733H53.6707V41.0566H50.2973V28.815H40.177ZM60.9356 41.0566H57.91L62.5006 16.5733H74.7074L79.3328 41.0566H76.2724L71.6818 22.6942H65.5262L60.9356 41.0566ZM87.0393 41.0566H83.9789V16.5733H87.0393V21.164L97.7507 30.3452V16.5733H100.811V41.0566H97.7507V36.466L87.0393 27.2848V41.0566ZM122.935 41.0566H106.137V16.5733H122.935V21.164H109.163V27.2848L122.865 27.25L122.935 31.8754H109.163V36.466H122.935V41.0566ZM22.7452 55.9065V75.7992H19.6848V55.9065H10.5035V51.3159H31.9264V55.9065H22.7452ZM34.479 75.834H31.4534L36.044 51.3507H48.2508L52.8762 75.834H49.8158L45.2252 57.4715H39.0696L34.479 75.834ZM54.8096 75.9035L59.4002 62.1317L54.8096 51.4203H57.87L62.4606 59.0713L67.0512 51.4203H70.1116L65.521 62.1317L70.1116 75.9035H67.0512L62.565 65.1921L58.0091 75.6949L54.8096 75.9035ZM84.964 55.9065V75.7992H81.9036V55.9065H72.7224V51.3159H94.1452V55.9065H84.964ZM96.6979 75.834H93.6722L98.2628 51.3507H110.47L115.095 75.834H112.035L107.444 57.4715H101.288L96.6979 75.834ZM117.237 50.7247L119.219 46.7253H123.219V48.7076L119.219 52.707H117.237V50.7247ZM23.1249 86.1281H18.5342V110.611H23.1249V106.021L30.7411 110.611H35.3317V109.081L23.1249 101.43V95.3093L35.3317 87.6583V86.1281H30.7411L23.1249 90.7187V86.1281ZM43.2321 110.611H46.2578L50.8484 92.2489H57.004L61.5946 110.611H64.655L60.0296 86.1281H47.8228L43.2321 110.611ZM70.6908 86.1976V99.9695H77.4724V110.681H80.5328V99.9695H87.523V86.1976H84.4626V95.3788H73.7512V86.1976H70.6908ZM93.9962 110.611H97.0219L101.612 92.2489H107.768L112.359 110.611H115.419L110.794 86.1281H98.5868L93.9962 110.611Z" fill="white"/>
</svg>
