<svg viewBox="0 0 624 92" fill="none" xmlns="http://www.w3.org/2000/svg">
<path fill-rule="evenodd" clip-rule="evenodd" d="M8 8H616V84H8V8ZM0 0H8H616H624V8V84V92H616H8H0V84V8V0ZM413.6 19.424L416.883 12.8H423.507V16.0832L416.883 22.7072H413.6V19.424ZM259.091 66.2269V33.2175H274.29V25.6H238.825V33.2175H254.024V66.2269H259.091ZM57.4569 25.6577H21.9922V48.5103H52.3905V58.667H21.9922V66.2846H57.4569V43.432H27.0586V33.2752H57.4569V25.6577ZM71.39 66.2846V45.9711H88.1436V66.2846H93.7281V25.6577H88.1436V38.3536H71.39V25.6577H65.863V66.2846H71.39ZM105.755 66.2846H100.746L108.346 25.6577H128.554L136.211 66.2846H131.145L123.545 35.8144H113.355L105.755 66.2846ZM143.902 25.6577V66.2846H148.969V43.432L166.701 58.667V66.2846H171.767V25.6577H166.701V48.5103L148.969 33.2752V25.6577H143.902ZM180.585 66.2846V25.6577H208.392V33.2752H185.593V43.432L208.277 43.3743L208.392 51.0495H185.593V58.667H208.392V66.2846H180.585ZM281.97 66.2846H276.961L284.561 25.6577H304.769L312.426 66.2846H307.359L299.76 35.8144H289.57L281.97 66.2846ZM335.773 66.2269V33.2175H350.972V25.6H315.507V33.2175H330.706V66.2269H335.773ZM358.687 66.4L366.286 43.5474L358.687 25.7731H363.753L371.353 38.469L378.952 25.7731H384.019L376.419 43.5474L384.019 66.4H378.952L371.526 48.6257L363.984 66.0537L358.687 66.4ZM391.45 66.2846H396.459L404.058 35.8144H414.249L421.848 66.2846H426.914L419.257 25.6577H399.049L391.45 66.2846ZM456.22 25.6577H463.82V33.2752L476.428 25.6577H484.028V28.1969L463.82 40.8928V51.0495L484.028 63.7454V66.2846H476.428L463.82 58.667V66.2846H456.22V25.6577ZM492.501 66.2846H497.51L505.109 35.8144H515.3L522.899 66.2846H527.966L520.309 25.6577H500.101L492.501 66.2846ZM533.352 48.6257V25.7731H538.418V41.0082H556.151V25.7731H561.217V48.6257H549.645V66.4H544.579V48.6257H533.352ZM567.327 66.2846H572.336L579.936 35.8144H590.126L597.726 66.2846H602.792L595.135 25.6577H574.927L567.327 66.2846Z" fill="currentColor"/>
</svg>
