<svg viewBox="0 0 200 192" fill="none" xmlns="http://www.w3.org/2000/svg">
<path fill-rule="evenodd" clip-rule="evenodd" d="M7.24528 7.24528H192V184.755H7.24528V7.24528ZM0 0H7.24528H192H199.245V7.24528V184.755V192H192H7.24528H0V184.755V7.24528V0ZM15.5067 24.86H47.641V31.7459H20.0973V40.9272H47.641V61.5849H15.5067V54.699H43.0504V45.5178H15.5067V24.86ZM60.2656 43.2225V61.5849H55.2576V24.86H60.2656V36.3365H75.4459V24.86H80.506V61.5849H75.4459V43.2225H60.2656ZM91.4034 61.5849H86.8649L93.7509 24.86H112.061L118.999 61.5849H114.409L107.523 34.0412H98.2893L91.4034 61.5849ZM130.559 61.5849H125.968V24.86H130.559V31.7459L146.626 45.5178V24.86H151.217V61.5849H146.626V54.699L130.559 40.9272V61.5849ZM184.402 61.5849H159.206V24.86H184.402V31.7459H163.744V40.9272L184.298 40.875L184.402 47.8131H163.744V54.699H184.402V61.5849ZM34.1177 83.8598V113.699H29.5271V83.8598H15.7553V76.9739H47.8896V83.8598H34.1177ZM51.7185 113.751H47.18L54.066 77.0261H72.3762L79.3143 113.751H74.7237L67.8378 86.2073H58.6044L51.7185 113.751ZM82.2144 113.855L89.1003 93.1975L82.2144 77.1304H86.805L93.691 88.6069L100.577 77.1304H105.167L98.2816 93.1975L105.167 113.855H100.577L93.8475 97.7881L87.0137 113.542L82.2144 113.855ZM127.446 83.8598V113.699H122.855V83.8598H109.084V76.9739H141.218V83.8598H127.446ZM145.047 113.751H140.508L147.394 77.0261H165.705L172.643 113.751H168.052L161.166 86.2073H151.933L145.047 113.751ZM175.856 76.0871L178.829 70.088H184.828V73.0614L178.829 79.0605H175.856V76.0871ZM34.6873 129.192H27.8014V165.917H34.6873V159.031L46.1117 165.917H52.9976V163.622L34.6873 152.145V142.964L52.9976 131.487V129.192H46.1117L34.6873 136.078V129.192ZM64.8482 165.917H69.3867L76.2726 138.373H85.506L92.3919 165.917H96.9825L90.0444 129.192H71.7341L64.8482 165.917ZM106.036 129.296V149.954H116.209V166.021H120.799V149.954H131.285V129.296H126.694V143.068H110.627V129.296H106.036ZM140.994 165.917H145.533L152.419 138.373H161.652L168.538 165.917H173.129L166.191 129.192H147.88L140.994 165.917Z" fill="currentColor"/>
</svg>
