<svg width="inherit" height="inherit" viewBox="0 0 86 87" fill="none" xmlns="http://www.w3.org/2000/svg">
<g filter="url(#filter0_d_283_549)">
<path fill-rule="evenodd" clip-rule="evenodd" d="M17.4902 68.7374L21.0822 55.624C18.8662 51.7867 17.7009 47.432 17.7022 42.972C17.7089 29.0187 29.0636 17.6667 43.0182 17.6667C49.7902 17.6694 56.1449 20.3054 60.9249 25.088C65.7036 29.872 68.3356 36.2294 68.3329 42.992C68.3276 56.9454 56.9702 68.2987 43.0182 68.2987H43.0076C38.7716 68.2974 34.6076 67.2347 30.9102 65.2174L17.4902 68.7374Z" fill="white"/>
<path fill-rule="evenodd" clip-rule="evenodd" d="M17.4903 69.404C17.3143 69.404 17.1436 69.3347 17.017 69.2067C16.8503 69.0373 16.785 68.7907 16.8476 68.5627L20.3663 55.7147C18.185 51.84 17.0343 47.44 17.037 42.9733C17.0423 28.6507 28.697 17 43.0183 17C49.965 17.0027 56.4916 19.708 61.397 24.6173C66.3023 29.528 69.0023 36.0533 68.9996 42.992C68.9943 57.3133 57.3383 68.9653 43.0183 68.9653C38.7663 68.964 34.5596 67.9147 30.8263 65.9293L17.6596 69.3813C17.6036 69.3973 17.5476 69.404 17.4903 69.404Z" fill="white"/>
<g filter="url(#filter1_d_283_549)">
<path fill-rule="evenodd" clip-rule="evenodd" d="M43.0191 17.6666C49.7911 17.6693 56.1458 20.3053 60.9258 25.088C65.7044 29.872 68.3364 36.2293 68.3338 42.992C68.3284 56.9453 56.9711 68.2986 43.0191 68.2986H43.0084C38.7724 68.2973 34.6084 67.2346 30.9111 65.2173L17.4911 68.7373L21.0831 55.624C18.8671 51.7866 17.7018 47.432 17.7031 42.972C17.7098 29.0186 29.0644 17.6666 43.0191 17.6666ZM43.0191 16.3333C28.3311 16.3333 16.3764 28.2826 16.3698 42.972C16.3684 47.4613 17.5018 51.8853 19.6511 55.8013L16.2044 68.3867C16.0791 68.8466 16.2071 69.3373 16.5431 69.676C16.7964 69.932 17.1391 70.072 17.4911 70.072C17.6044 70.072 17.7178 70.0573 17.8298 70.028L30.7458 66.6413C34.5164 68.5986 38.7431 69.632 43.0084 69.6333C57.7071 69.6333 69.6618 57.6826 69.6684 42.9933C69.6711 35.8746 66.9018 29.1813 61.8711 24.1466C56.8378 19.1106 50.1431 16.336 43.0191 16.3333Z" fill="#F2F2F2"/>
</g>
<path fill-rule="evenodd" clip-rule="evenodd" d="M57.9009 28.1093C53.9276 24.1333 48.6463 21.9427 43.0249 21.9413C31.4196 21.9413 21.9809 31.376 21.9756 42.9733C21.9743 46.948 23.0863 50.8173 25.1929 54.168L25.6943 54.964L23.5676 62.7253L31.5316 60.6373L32.3009 61.0933C35.5303 63.0107 39.2343 64.024 43.0103 64.0253H43.0183C54.6156 64.0253 64.0543 54.5893 64.0583 42.9907C64.0596 37.3707 61.8743 32.0853 57.9009 28.1093Z" fill="#40C351"/>
<path fill-rule="evenodd" clip-rule="evenodd" d="M36.6907 32.3933C36.2173 31.34 35.7187 31.3186 35.2667 31.3C34.8973 31.284 34.476 31.2853 34.0547 31.2853C33.6333 31.2853 32.948 31.444 32.368 32.0773C31.788 32.7106 30.1533 34.24 30.1533 37.352C30.1533 40.464 32.42 43.472 32.736 43.8933C33.052 44.3146 37.112 50.9053 43.5413 53.4413C48.884 55.548 49.972 55.1293 51.132 55.024C52.292 54.9186 54.8747 53.4946 55.4013 52.0173C55.928 50.54 55.928 49.2746 55.7707 49.0106C55.612 48.7466 55.1907 48.5893 54.5587 48.272C53.9267 47.9546 50.816 46.4253 50.236 46.2146C49.656 46.004 49.2347 45.8986 48.812 46.532C48.3907 47.164 47.1787 48.5893 46.8093 49.0106C46.44 49.4333 46.0707 49.4866 45.4387 49.1693C44.8067 48.852 42.7693 48.1853 40.352 46.0306C38.472 44.3546 37.2027 42.284 36.8333 41.6506C36.464 41.0186 36.7933 40.676 37.1107 40.36C37.3947 40.076 37.7427 39.6213 38.06 39.252C38.376 38.8826 38.4813 38.6186 38.692 38.1973C38.9027 37.7746 38.7973 37.4053 38.6387 37.0893C38.4827 36.772 37.2533 33.644 36.6907 32.3933Z" fill="white"/>
</g>
<defs>
<filter id="filter0_d_283_549" x="-5" y="-5" width="96" height="96" filterUnits="userSpaceOnUse" color-interpolation-filters="sRGB">
<feFlood flood-opacity="0" result="BackgroundImageFix"/>
<feColorMatrix in="SourceAlpha" type="matrix" values="0 0 0 0 0 0 0 0 0 0 0 0 0 0 0 0 0 0 127 0" result="hardAlpha"/>
<feOffset/>
<feGaussianBlur stdDeviation="8"/>
<feComposite in2="hardAlpha" operator="out"/>
<feColorMatrix type="matrix" values="0 0 0 0 0 0 0 0 0 0 0 0 0 0 0 0 0 0 0.08 0"/>
<feBlend mode="normal" in2="BackgroundImageFix" result="effect1_dropShadow_283_549"/>
<feBlend mode="normal" in="SourceGraphic" in2="effect1_dropShadow_283_549" result="shape"/>
</filter>
<filter id="filter1_d_283_549" x="16.1572" y="16.3333" width="53.5107" height="54.7386" filterUnits="userSpaceOnUse" color-interpolation-filters="sRGB">
<feFlood flood-opacity="0" result="BackgroundImageFix"/>
<feColorMatrix in="SourceAlpha" type="matrix" values="0 0 0 0 0 0 0 0 0 0 0 0 0 0 0 0 0 0 127 0" result="hardAlpha"/>
<feOffset dy="1"/>
<feComposite in2="hardAlpha" operator="out"/>
<feColorMatrix type="matrix" values="0 0 0 0 0 0 0 0 0 0 0 0 0 0 0 0 0 0 0.16 0"/>
<feBlend mode="normal" in2="BackgroundImageFix" result="effect1_dropShadow_283_549"/>
<feBlend mode="normal" in="SourceGraphic" in2="effect1_dropShadow_283_549" result="shape"/>
</filter>
</defs>
</svg>
